<svg xmlns="http://www.w3.org/2000/svg" xmlns:xlink="http://www.w3.org/1999/xlink" width="176.0" height="216.0" viewBox="625262.0 3010172.0 176.0 216.0" preserveAspectRatio="xMinYMin meet"><g transform="matrix(1,0,0,-1,0,6020560.0)"><path fill-rule="evenodd" fill="#66cc99" stroke="#555555" stroke-width="2.0" opacity="0.6" d="M 625350.0,3010380.0 L 625370.0,3010380.0 L 625370.0,3010370.0 L 625390.0,3010370.0 L 625390.0,3010360.0 L 625410.0,3010360.0 L 625410.0,3010350.0 L 625430.0,3010350.0 L 625430.0,3010320.0 L 625420.0,3010320.0 L 625420.0,3010300.0 L 625410.0,3010300.0 L 625410.0,3010280.0 L 625400.0,3010280.0 L 625400.0,3010270.0 L 625390.0,3010270.0 L 625390.0,3010250.0 L 625380.0,3010250.0 L 625380.0,3010230.0 L 625370.0,3010230.0 L 625370.0,3010220.0 L 625360.0,3010220.0 L 625360.0,3010200.0 L 625350.0,3010200.0 L 625350.0,3010180.0 L 625310.0,3010180.0 L 625310.0,3010190.0 L 625290.0,3010190.0 L 625290.0,3010200.0 L 625270.0,3010200.0 L 625270.0,3010240.0 L 625280.0,3010240.0 L 625280.0,3010250.0 L 625290.0,3010250.0 L 625290.0,3010270.0 L 625300.0,3010270.0 L 625300.0,3010290.0 L 625310.0,3010290.0 L 625310.0,3010310.0 L 625320.0,3010310.0 L 625320.0,3010330.0 L 625330.0,3010330.0 L 625330.0,3010350.0 L 625340.0,3010350.0 L 625340.0,3010360.0 L 625350.0,3010360.0 L 625350.0,3010380.0 z" /></g></svg>